<svg id="Layer_1" enable-background="new 0 0 48 48" viewBox="0 0 48 48" xmlns="http://www.w3.org/2000/svg"><g><path d="m45.5 40.12v-20.62-1.5-7.5c0-.83-.67-1.5-1.5-1.5h-.5v-4.5c0-.83-.67-1.5-1.5-1.5h-12c-.83 0-1.5.67-1.5 1.5v4.5h-9v-4.5c0-.83-.67-1.5-1.5-1.5h-12c-.83 0-1.5.67-1.5 1.5v4.5h-.5c-.83 0-1.5.67-1.5 1.5v7.5 1.5 25.5h38.12zm-14-34.12h9v3h-8.5-.5zm-24 0h9v3h-.5-8.5zm-2 6h.5 10 2 12 2 10 .5v6h-37zm0 30v-21h37v17.88l-3.12 3.12z"/><path d="m15 24h-4c-.83 0-1.5.67-1.5 1.5s.67 1.5 1.5 1.5h4c.83 0 1.5-.67 1.5-1.5s-.67-1.5-1.5-1.5z"/><path d="m26 24h-4c-.83 0-1.5.67-1.5 1.5s.67 1.5 1.5 1.5h4c.83 0 1.5-.67 1.5-1.5s-.67-1.5-1.5-1.5z"/><path d="m37 24h-4c-.83 0-1.5.67-1.5 1.5s.67 1.5 1.5 1.5h4c.83 0 1.5-.67 1.5-1.5s-.67-1.5-1.5-1.5z"/><path d="m15 30h-4c-.83 0-1.5.67-1.5 1.5s.67 1.5 1.5 1.5h4c.83 0 1.5-.67 1.5-1.5s-.67-1.5-1.5-1.5z"/><path d="m26 30h-4c-.83 0-1.5.67-1.5 1.5s.67 1.5 1.5 1.5h4c.83 0 1.5-.67 1.5-1.5s-.67-1.5-1.5-1.5z"/><path d="m37 30h-4c-.83 0-1.5.67-1.5 1.5s.67 1.5 1.5 1.5h4c.83 0 1.5-.67 1.5-1.5s-.67-1.5-1.5-1.5z"/><path d="m37 36h-4c-.83 0-1.5.67-1.5 1.5s.67 1.5 1.5 1.5h4c.83 0 1.5-.67 1.5-1.5s-.67-1.5-1.5-1.5z"/><path d="m15 36h-4c-.83 0-1.5.67-1.5 1.5s.67 1.5 1.5 1.5h4c.83 0 1.5-.67 1.5-1.5s-.67-1.5-1.5-1.5z"/><path d="m26 36h-4c-.83 0-1.5.67-1.5 1.5s.67 1.5 1.5 1.5h4c.83 0 1.5-.67 1.5-1.5s-.67-1.5-1.5-1.5z"/></g></svg>